<svg width="1440" height="568" viewBox="0 0 1440 568" fill="none" xmlns="http://www.w3.org/2000/svg">
<rect width="1440" height="567.976" fill="#FBFBFB"/>
<g opacity="0.09" clip-path="url(#clip0_196_1272)">
<path d="M4.90039 547.146C24.3004 561.985 43.1004 577.499 62.2004 592.675" stroke="url(#paint0_linear_196_1272)" stroke-width="0.8419" stroke-miterlimit="10"/>
<path d="M5 360.139C14.9 367.728 25.1 374.978 34.6 382.904C43.9 390.661 53.5 398.249 63.1 405.753C82.2 420.76 100.6 436.443 120 451.197C129.4 458.364 138.4 466.121 148.3 472.613C158.7 479.526 168.1 487.705 177.8 495.377C197.2 510.722 216.7 526.067 236.1 541.328C255.4 556.588 274.8 571.849 294.1 587.025C296.5 588.88 298.9 590.82 301.3 592.674" stroke="url(#paint1_linear_196_1272)" stroke-width="0.8419" stroke-miterlimit="10"/>
<path d="M4.7998 208.714C20.7998 219.759 34.8998 232.574 50.5998 243.957C58.5998 249.774 65.6998 256.266 73.4998 262.337C81.8998 268.829 90.2998 275.237 98.6998 281.729C115.3 294.46 131.8 307.191 148.4 319.923C164.9 332.569 181.3 345.216 197.8 357.863C214.2 370.51 230.7 383.157 247.1 395.804C263.4 408.367 279.7 420.845 295.9 433.408C312.1 445.886 328.3 458.449 344.5 470.927C360.7 483.405 376.9 495.884 393 508.362C409.2 520.925 425.5 533.403 441.7 545.965C457.9 558.444 474 570.922 490.2 583.4C494.2 586.436 498.1 589.555 502.1 592.59" stroke="url(#paint2_linear_196_1272)" stroke-width="0.8419" stroke-miterlimit="10"/>
<path d="M4.90039 83.9312C9.30039 86.8821 12.9004 89.1585 16.5004 92.9526C22.8004 97.5055 30.0004 102.058 36.3004 106.611C64.2004 128.617 91.2004 149.105 119.1 171.111C237.9 261.41 350.4 344.88 469.2 436.696C483.6 447.32 497.1 457.943 510.6 469.325C565.5 511.819 619.5 551.277 673.7 592.591" stroke="url(#paint3_linear_196_1272)" stroke-width="0.8419" stroke-miterlimit="10"/>
<path d="M73.5996 30.729C160.5 95.9872 246 159.728 335.1 226.504C350.4 238.645 364.8 248.509 379.2 260.65C383.7 263.685 388.2 266.721 392.7 269.756C395.4 272.791 399 275.068 402.6 277.344C403.5 278.103 404.4 279.621 405.3 280.379C548.4 386.614 683.4 488.295 822.2 592.759" stroke="url(#paint4_linear_196_1272)" stroke-width="0.8419" stroke-miterlimit="10"/>
<path d="M163 7.375C192.9 29.9708 222.6 51.9765 253.2 74.741C262.2 80.8115 271.2 86.882 280.2 93.7114C311.7 118.752 342.3 140.758 374.7 165.04C397.2 180.975 417 196.152 439.5 212.845C481.8 243.957 521.4 272.792 563.7 305.421C572.7 311.492 581.7 316.803 589.8 323.633C597.9 330.462 606.9 335.774 615 342.603C615.9 343.362 616.8 344.879 617.7 345.638C624.9 350.191 630.3 354.744 637.5 359.297C638.4 360.056 639.3 361.573 640.2 362.332C671.7 384.338 699.6 406.344 730.2 429.108C737.4 433.661 742.8 438.214 750 442.767C753.6 445.043 755.4 448.078 759 450.355C798.6 479.19 835.5 506.507 874.2 536.101C877.8 538.377 881.4 540.654 885 542.93C885.9 543.689 886.8 545.207 887.7 545.966C910.2 561.142 930 577.836 951.4 592.759" stroke="url(#paint5_linear_196_1272)" stroke-width="0.8419" stroke-miterlimit="10"/>
<path d="M240.7 -13.4504C253.1 -4.17602 265.7 4.17095 277.4 14.0356C278.3 14.7944 280.1 14.7944 281 15.5532C338.6 58.0469 392.6 97.5053 450.2 139.999C550.1 215.122 644.6 282.656 744.5 357.779C748.1 360.056 751.7 362.332 755.3 364.609C791.3 391.167 824.6 415.449 860.6 442.008C880.4 457.943 900.2 470.843 920 486.778C926.3 490.572 931.7 495.125 938 498.919C938.9 499.678 939.8 501.195 940.7 501.954C944.3 504.231 947.9 506.507 951.5 508.784C989.3 538.377 1028 564.177 1065 592.843" stroke="url(#paint6_linear_196_1272)" stroke-width="0.8419" stroke-miterlimit="10"/>
<path d="M309.8 -31.4087C595.2 177.181 880.5 385.097 1165.6 592.844" stroke="url(#paint7_linear_196_1272)" stroke-width="0.8419" stroke-miterlimit="10"/>
<path d="M1030.8 430.204C1022.7 448.079 1012.8 466.29 1003.8 484.502C997.5 495.884 992.1 506.507 985.8 517.89C973.2 542.931 960.6 567.972 948.1 592.76" stroke="url(#paint8_linear_196_1272)" stroke-width="0.8419" stroke-miterlimit="10"/>
<path d="M944.2 367.475C937.1 377.508 930.8 386.614 924.5 397.237C923.6 397.996 922.7 398.755 921.8 399.514C896.6 438.972 869.6 475.395 844.4 514.854C842.6 517.13 840.8 518.648 839 520.924C831.8 533.824 822.8 545.206 814.7 558.106C805.7 569.489 799.4 581.63 790.7 592.759" stroke="url(#paint9_linear_196_1272)" stroke-width="0.8419" stroke-miterlimit="10"/>
<path d="M858.9 305.674C775.2 401.791 688.8 496.643 604.7 592.759" stroke="url(#paint10_linear_196_1272)" stroke-width="0.8419" stroke-miterlimit="10"/>
<path d="M774.8 244.8C656.4 349.432 541.2 452.631 419.7 559.624C408 568.73 398.1 578.594 386.4 587.7C384.6 589.218 383.7 591.494 381.5 592.675" stroke="url(#paint11_linear_196_1272)" stroke-width="0.8419" stroke-miterlimit="10"/>
<path d="M691.8 184.769C673.4 199.187 654.5 211.328 635.6 224.227C619.4 235.61 605 246.233 587.9 256.857C586.1 258.374 585.2 259.892 583.4 261.409C551.9 281.139 526.7 300.868 496.1 321.356C477.2 334.256 461.9 346.397 443 358.538C434 364.608 427.7 370.679 418.7 375.991C417.8 376.749 416 376.749 415.1 377.508C401.6 385.855 391.7 395.72 378.2 404.826C353.9 420.761 334.1 436.696 309.8 451.872C308.9 452.631 308 454.149 307.1 454.907C289.1 467.049 273.8 479.19 254.9 489.054C228.8 511.06 199.1 528.513 169.4 549.001C168.5 549.759 167.6 551.277 166.7 552.036C152.3 561.142 139.7 571.006 126.2 580.871C122.6 583.147 119 585.424 115.4 587.7C112.7 589.218 110.9 591.494 108.8 592.759" stroke="url(#paint12_linear_196_1272)" stroke-width="0.8419" stroke-miterlimit="10"/>
<path d="M610.1 125.581C408 237.127 206.4 349.432 5 460.893" stroke="url(#paint13_linear_196_1272)" stroke-width="0.8419" stroke-miterlimit="10"/>
<path d="M529.5 67.1526C354.9 143.793 179.4 220.433 4.7998 296.737" stroke="url(#paint14_linear_196_1272)" stroke-width="0.8419" stroke-miterlimit="10"/>
<path d="M450 9.65039C387.3 30.7286 324.3 52.7343 260.4 73.9811C255 76.2576 250.5 77.7752 245.1 80.0516C211.8 90.6751 180.3 102.057 147 112.681C141.6 114.957 137.1 116.475 131.7 118.751C129.9 119.51 129 118.751 127.2 119.51C121.8 121.787 117.3 124.063 111.9 125.581C83.9998 133.928 56.9998 144.551 29.0998 152.898C20.9998 155.933 12.8998 158.968 4.7998 161.666" stroke="url(#paint15_linear_196_1272)" stroke-width="0.8419" stroke-miterlimit="10"/>
<path d="M5 48.6036C29.2 42.3645 53.4 36.1253 77.6 29.8019C101.8 23.4784 125.9 17.2393 150.1 10.9158C174.4 4.59232 198.8 -1.73114 223.1 -8.05461C229.3 -9.65655 235.5 -11.2585 241.7 -12.8604C244.6 -13.6193 247.7 -14.2094 250.5 -15.2212C253.2 -16.1486 255.7 -17.4133 258.5 -18.1722C270.2 -21.0388 282 -23.6525 293.7 -26.6034C305.5 -29.6387 317.2 -32.8426 329 -35.8779C340.4 -38.7445 351.6 -42.8758 363.2 -44.6464C365.6 -44.9837 367.5 -46.417 369.8 -46.7542C372.5 -47.1758 374.7 -44.6464 376.7 -43.2974C381.6 -39.8406 386.5 -36.3837 391.4 -32.9269C400.9 -26.1819 410.4 -19.3525 419.9 -12.6075C438.8 0.966869 457.5 14.6256 476.3 28.2842C495.2 42.0272 514.1 55.8546 533.1 69.5132C542.8 76.5112 552.7 83.3406 562.2 90.5915C566.4 93.7954 570.6 96.9992 575 99.9502C577.1 101.384 578.3 103.154 580.2 104.587C582.3 106.189 584.9 107.538 587.2 108.972C597.3 115.211 606.3 122.63 615.6 129.628C624.8 136.542 634.1 143.371 643.4 150.116C662.2 163.859 681.1 177.434 699.9 191.092C718.8 204.835 737.9 218.41 756.8 232.069C766.3 238.982 776 245.643 785.8 252.304C794.9 258.543 803.2 265.541 812.1 271.948C816.4 275.068 821.9 277.766 825.7 281.307C827.6 283.078 829 284.764 831.3 286.366C833.8 288.137 836.3 289.907 838.7 291.678C848.5 298.676 858.3 305.674 868 312.672C887.3 326.583 906.7 340.495 926 354.406C945.1 368.234 964.2 381.977 983.3 395.804C1002.3 409.547 1021.2 423.206 1040.2 436.949C1059.1 450.607 1078 464.35 1096.9 478.009C1115.8 491.668 1134.8 505.411 1153.7 519.07C1163.2 525.899 1172.7 532.813 1182.2 539.642C1187 543.099 1191.8 546.556 1196.6 550.012C1198.9 551.699 1201.3 553.385 1203.6 555.071C1204.6 555.83 1206.3 556.673 1207.1 557.601C1208 558.697 1207.3 560.046 1207 561.479C1204.6 571.849 1202.2 582.136 1199.8 592.506" stroke="url(#paint16_linear_196_1272)" stroke-width="0.8419" stroke-miterlimit="10"/>
<path d="M400.9 382.736C559.6 271.443 689.6 182.577 691.3 184.348C693 186.118 565.8 277.766 407.1 389.059C248.4 500.352 118.4 589.218 116.7 587.447C115 585.677 242.2 494.029 400.9 382.736Z" fill="url(#paint17_radial_196_1272)"/>
<path d="M790.6 600.263C794.7 594.361 798.9 588.375 803 582.389C907.2 432.143 989.8 309.468 987.5 308.287C985.2 307.107 898.8 428.012 794.6 578.257C789.5 585.677 784.4 593.012 779.3 600.263H790.6Z" fill="url(#paint18_radial_196_1272)"/>
<path d="M585 139.746C583.5 137.807 442.3 213.604 269.7 308.962C150.8 374.557 48.1 432.396 -4 462.664V467.301C48.9 439.647 154.3 382.567 275 315.875C447.7 220.518 586.5 141.685 585 139.746Z" fill="url(#paint19_radial_196_1272)"/>
<path d="M460.7 96.9141C459.5 94.8906 310 158.294 126.8 238.56C80.3 258.963 36.1 278.44 -4 296.23V304.745C37.4 286.871 83.2 266.973 131.4 245.811C314.5 165.629 462 98.9376 460.7 96.9141Z" fill="url(#paint20_radial_196_1272)"/>
<path d="M327.2 323.632C480.8 439.9 603.8 535.51 602 537.197C600.2 538.883 474.2 445.97 320.7 329.703C167.1 213.519 44.1004 117.824 45.9004 116.138C47.7004 114.452 173.7 207.365 327.2 323.632Z" fill="url(#paint21_radial_196_1272)"/>
<path d="M306.7 446.982C384.8 507.603 455.7 561.985 506.4 600.263H516.2C466.6 560.551 394.2 503.724 313.3 440.911C161.5 323.042 36.8998 228.864 35.0998 230.551C33.2998 232.153 154.9 329.112 306.7 446.982Z" fill="url(#paint22_radial_196_1272)"/>
<path d="M305 600.263H318.5C288 576.149 254.8 550.012 219.9 522.779C128.3 451.113 46.6 388.216 -4 350.022V356.683C45.2 396.563 124 459.038 213.3 528.85C245.4 553.975 276.3 578.004 305 600.263Z" fill="url(#paint23_radial_196_1272)"/>
<path d="M582.8 416.461C688.2 496.221 780.3 565.189 828.1 600.263H832.7C787 564.514 694.4 493.607 587.1 412.329C433.6 296.146 308.1 202.812 306.9 203.908C305.7 205.004 429.2 300.193 582.8 416.461Z" fill="url(#paint24_radial_196_1272)"/>
<path d="M375.8 600.263C423.3 559.961 501.9 491.583 590.2 413.678C732.9 287.883 846.9 184.6 844.9 182.998C842.9 181.396 725.8 282.15 583.2 407.945C492.5 487.958 413.4 558.781 368.3 600.263H375.8Z" fill="url(#paint25_radial_196_1272)"/>
<path d="M605.6 600.262C629.6 573.114 655.5 543.773 682.3 513.083C805 373.123 902.6 258.542 900.5 257.193C898.3 255.844 797.1 368.233 674.5 508.193C646.1 540.569 619 571.596 594.3 600.262H605.6Z" fill="url(#paint26_radial_196_1272)"/>
</g>
<g opacity="0.09" clip-path="url(#clip1_196_1272)">
<path d="M1431.1 547.146C1411.7 561.985 1392.9 577.499 1373.8 592.675" stroke="url(#paint27_linear_196_1272)" stroke-width="0.8419" stroke-miterlimit="10"/>
<path d="M1431 360.139C1421.1 367.728 1410.9 374.978 1401.4 382.904C1392.1 390.661 1382.5 398.249 1372.9 405.753C1353.8 420.76 1335.4 436.443 1316 451.197C1306.6 458.364 1297.6 466.121 1287.7 472.613C1277.3 479.526 1267.9 487.705 1258.2 495.377C1238.8 510.722 1219.3 526.067 1199.9 541.328C1180.6 556.588 1161.2 571.849 1141.9 587.025C1139.5 588.88 1137.1 590.82 1134.7 592.674" stroke="url(#paint28_linear_196_1272)" stroke-width="0.8419" stroke-miterlimit="10"/>
<path d="M1431.2 208.714C1415.2 219.759 1401.1 232.574 1385.4 243.957C1377.4 249.774 1370.3 256.266 1362.5 262.337C1354.1 268.829 1345.7 275.237 1337.3 281.729C1320.7 294.46 1304.2 307.191 1287.6 319.923C1271.1 332.569 1254.7 345.216 1238.2 357.863C1221.8 370.51 1205.3 383.157 1188.9 395.804C1172.6 408.367 1156.3 420.845 1140.1 433.408C1123.9 445.886 1107.7 458.449 1091.5 470.927C1075.3 483.405 1059.1 495.884 1043 508.362C1026.8 520.925 1010.5 533.403 994.3 545.965C978.1 558.444 962 570.922 945.8 583.4C941.8 586.436 937.9 589.555 933.9 592.59" stroke="url(#paint29_linear_196_1272)" stroke-width="0.8419" stroke-miterlimit="10"/>
<path d="M1431.1 83.9312C1426.7 86.8821 1423.1 89.1585 1419.5 92.9526C1413.2 97.5055 1406 102.058 1399.7 106.611C1371.8 128.617 1344.8 149.105 1316.9 171.111C1198.1 261.41 1085.6 344.88 966.801 436.696C952.401 447.32 938.901 457.943 925.401 469.325C870.501 511.819 816.501 551.277 762.301 592.591" stroke="url(#paint30_linear_196_1272)" stroke-width="0.8419" stroke-miterlimit="10"/>
<path d="M1362.4 30.729C1275.5 95.9872 1190 159.728 1100.9 226.504C1085.6 238.645 1071.2 248.509 1056.8 260.65C1052.3 263.685 1047.8 266.721 1043.3 269.756C1040.6 272.791 1037 275.068 1033.4 277.344C1032.5 278.103 1031.6 279.621 1030.7 280.379C887.6 386.614 752.6 488.295 613.8 592.759" stroke="url(#paint31_linear_196_1272)" stroke-width="0.8419" stroke-miterlimit="10"/>
<path d="M1273 7.375C1243.1 29.9708 1213.4 51.9765 1182.8 74.741C1173.8 80.8115 1164.8 86.882 1155.8 93.7114C1124.3 118.752 1093.7 140.758 1061.3 165.04C1038.8 180.975 1019 196.152 996.5 212.845C954.2 243.957 914.6 272.792 872.3 305.421C863.3 311.492 854.3 316.803 846.2 323.633C838.1 330.462 829.1 335.774 821 342.603C820.1 343.362 819.2 344.879 818.3 345.638C811.1 350.191 805.7 354.744 798.5 359.297C797.6 360.056 796.7 361.573 795.8 362.332C764.3 384.338 736.4 406.344 705.8 429.108C698.6 433.661 693.2 438.214 686 442.767C682.4 445.043 680.6 448.078 677 450.355C637.4 479.19 600.5 506.507 561.8 536.101C558.2 538.377 554.6 540.654 551 542.93C550.1 543.689 549.2 545.207 548.3 545.966C525.8 561.142 506 577.836 484.6 592.759" stroke="url(#paint32_linear_196_1272)" stroke-width="0.8419" stroke-miterlimit="10"/>
<path d="M1195.3 -13.4504C1182.9 -4.17602 1170.3 4.17095 1158.6 14.0356C1157.7 14.7944 1155.9 14.7944 1155 15.5532C1097.4 58.0469 1043.4 97.5053 985.8 139.999C885.9 215.122 791.4 282.656 691.5 357.779C687.9 360.056 684.3 362.332 680.7 364.609C644.7 391.167 611.4 415.449 575.4 442.008C555.6 457.943 535.8 470.843 516 486.778C509.7 490.572 504.3 495.125 498 498.919C497.1 499.678 496.2 501.195 495.3 501.954C491.7 504.231 488.1 506.507 484.5 508.784C446.7 538.377 408 564.177 371 592.843" stroke="url(#paint33_linear_196_1272)" stroke-width="0.8419" stroke-miterlimit="10"/>
<path d="M1126.2 -31.4087C840.8 177.181 555.5 385.097 270.4 592.844" stroke="url(#paint34_linear_196_1272)" stroke-width="0.8419" stroke-miterlimit="10"/>
<path d="M405.2 430.204C413.3 448.079 423.2 466.29 432.2 484.502C438.5 495.884 443.9 506.507 450.2 517.89C462.8 542.931 475.4 567.972 487.9 592.76" stroke="url(#paint35_linear_196_1272)" stroke-width="0.8419" stroke-miterlimit="10"/>
<path d="M491.8 367.475C498.9 377.508 505.2 386.614 511.5 397.237C512.4 397.996 513.3 398.755 514.2 399.514C539.4 438.972 566.4 475.395 591.6 514.854C593.4 517.13 595.2 518.648 597 520.924C604.2 533.824 613.2 545.206 621.3 558.106C630.3 569.489 636.6 581.63 645.3 592.759" stroke="url(#paint36_linear_196_1272)" stroke-width="0.8419" stroke-miterlimit="10"/>
<path d="M577.1 305.674C660.8 401.791 747.2 496.643 831.3 592.759" stroke="url(#paint37_linear_196_1272)" stroke-width="0.8419" stroke-miterlimit="10"/>
<path d="M661.2 244.8C779.6 349.432 894.8 452.631 1016.3 559.624C1028 568.73 1037.9 578.594 1049.6 587.7C1051.4 589.218 1052.3 591.494 1054.5 592.675" stroke="url(#paint38_linear_196_1272)" stroke-width="0.8419" stroke-miterlimit="10"/>
<path d="M744.2 184.769C762.6 199.187 781.5 211.328 800.4 224.227C816.6 235.61 831 246.233 848.1 256.857C849.9 258.374 850.8 259.892 852.6 261.409C884.1 281.139 909.3 300.868 939.9 321.356C958.8 334.256 974.1 346.397 993 358.538C1002 364.608 1008.3 370.679 1017.3 375.991C1018.2 376.749 1020 376.749 1020.9 377.508C1034.4 385.855 1044.3 395.72 1057.8 404.826C1082.1 420.761 1101.9 436.696 1126.2 451.872C1127.1 452.631 1128 454.149 1128.9 454.907C1146.9 467.049 1162.2 479.19 1181.1 489.054C1207.2 511.06 1236.9 528.513 1266.6 549.001C1267.5 549.759 1268.4 551.277 1269.3 552.036C1283.7 561.142 1296.3 571.006 1309.8 580.871C1313.4 583.147 1317 585.424 1320.6 587.7C1323.3 589.218 1325.1 591.494 1327.2 592.759" stroke="url(#paint39_linear_196_1272)" stroke-width="0.8419" stroke-miterlimit="10"/>
<path d="M825.9 125.581C1028 237.127 1229.6 349.432 1431 460.893" stroke="url(#paint40_linear_196_1272)" stroke-width="0.8419" stroke-miterlimit="10"/>
<path d="M906.5 67.1526C1081.1 143.793 1256.6 220.433 1431.2 296.737" stroke="url(#paint41_linear_196_1272)" stroke-width="0.8419" stroke-miterlimit="10"/>
<path d="M986 9.65039C1048.7 30.7286 1111.7 52.7343 1175.6 73.9811C1181 76.2576 1185.5 77.7752 1190.9 80.0516C1224.2 90.6751 1255.7 102.057 1289 112.681C1294.4 114.957 1298.9 116.475 1304.3 118.751C1306.1 119.51 1307 118.751 1308.8 119.51C1314.2 121.787 1318.7 124.063 1324.1 125.581C1352 133.928 1379 144.551 1406.9 152.898C1415 155.933 1423.1 158.968 1431.2 161.666" stroke="url(#paint42_linear_196_1272)" stroke-width="0.8419" stroke-miterlimit="10"/>
<path d="M1431 48.6036C1406.8 42.3645 1382.6 36.1253 1358.4 29.8019C1334.2 23.4784 1310.1 17.2393 1285.9 10.9158C1261.6 4.59232 1237.2 -1.73114 1212.9 -8.05461C1206.7 -9.65655 1200.5 -11.2585 1194.3 -12.8604C1191.4 -13.6193 1188.3 -14.2094 1185.5 -15.2212C1182.8 -16.1486 1180.3 -17.4133 1177.5 -18.1722C1165.8 -21.0388 1154 -23.6525 1142.3 -26.6034C1130.5 -29.6387 1118.8 -32.8426 1107 -35.8779C1095.6 -38.7445 1084.4 -42.8758 1072.8 -44.6464C1070.4 -44.9837 1068.5 -46.417 1066.2 -46.7542C1063.5 -47.1758 1061.3 -44.6464 1059.3 -43.2974C1054.4 -39.8406 1049.5 -36.3837 1044.6 -32.9269C1035.1 -26.1819 1025.6 -19.3525 1016.1 -12.6075C997.2 0.966869 978.5 14.6256 959.7 28.2842C940.8 42.0272 921.9 55.8546 902.9 69.5132C893.2 76.5112 883.3 83.3406 873.8 90.5915C869.6 93.7954 865.4 96.9992 861 99.9502C858.9 101.384 857.7 103.154 855.8 104.587C853.7 106.189 851.1 107.538 848.8 108.972C838.7 115.211 829.7 122.63 820.4 129.628C811.2 136.542 801.9 143.371 792.6 150.116C773.8 163.859 754.9 177.434 736.1 191.092C717.2 204.835 698.1 218.41 679.2 232.069C669.7 238.982 660 245.643 650.2 252.304C641.1 258.543 632.8 265.541 623.9 271.948C619.6 275.068 614.1 277.766 610.3 281.307C608.4 283.078 607 284.764 604.7 286.366C602.2 288.137 599.7 289.907 597.3 291.678C587.5 298.676 577.7 305.674 568 312.672C548.7 326.583 529.3 340.495 510 354.406C490.9 368.234 471.8 381.977 452.7 395.804C433.7 409.547 414.8 423.206 395.8 436.949C376.9 450.607 358 464.35 339.1 478.009C320.2 491.668 301.2 505.411 282.3 519.07C272.8 525.899 263.3 532.813 253.8 539.642C249 543.099 244.2 546.556 239.4 550.012C237.1 551.699 234.7 553.385 232.4 555.071C231.4 555.83 229.7 556.673 228.9 557.601C228 558.697 228.7 560.046 229 561.479C231.4 571.849 233.8 582.136 236.2 592.506" stroke="url(#paint43_linear_196_1272)" stroke-width="0.8419" stroke-miterlimit="10"/>
<path d="M1035.1 382.736C876.4 271.443 746.4 182.577 744.7 184.348C743 186.118 870.2 277.766 1028.9 389.059C1187.6 500.352 1317.6 589.218 1319.3 587.447C1321 585.677 1193.8 494.029 1035.1 382.736Z" fill="url(#paint44_radial_196_1272)"/>
<path d="M645.4 600.263C641.3 594.361 637.1 588.375 633 582.389C528.8 432.143 446.2 309.468 448.5 308.287C450.8 307.107 537.2 428.012 641.4 578.257C646.5 585.677 651.6 593.012 656.7 600.263H645.4Z" fill="url(#paint45_radial_196_1272)"/>
<path d="M851 139.746C852.5 137.807 993.7 213.604 1166.3 308.962C1285.2 374.557 1387.9 432.396 1440 462.664V467.301C1387.1 439.647 1281.7 382.567 1161 315.875C988.3 220.518 849.5 141.685 851 139.746Z" fill="url(#paint46_radial_196_1272)"/>
<path d="M975.3 96.9141C976.5 94.8906 1126 158.294 1309.2 238.56C1355.7 258.963 1399.9 278.44 1440 296.23V304.745C1398.6 286.871 1352.8 266.973 1304.6 245.811C1121.5 165.629 974 98.9376 975.3 96.9141Z" fill="url(#paint47_radial_196_1272)"/>
<path d="M1108.8 323.632C955.2 439.9 832.2 535.51 834 537.197C835.8 538.883 961.8 445.97 1115.3 329.703C1268.9 213.519 1391.9 117.824 1390.1 116.138C1388.3 114.452 1262.3 207.365 1108.8 323.632Z" fill="url(#paint48_radial_196_1272)"/>
<path d="M1129.3 446.982C1051.2 507.603 980.3 561.985 929.6 600.263H919.8C969.4 560.551 1041.8 503.724 1122.7 440.911C1274.5 323.042 1399.1 228.864 1400.9 230.551C1402.7 232.153 1281.1 329.112 1129.3 446.982Z" fill="url(#paint49_radial_196_1272)"/>
<path d="M1131 600.263H1117.5C1148 576.149 1181.2 550.012 1216.1 522.779C1307.7 451.113 1389.4 388.216 1440 350.022V356.683C1390.8 396.563 1312 459.038 1222.7 528.85C1190.6 553.975 1159.7 578.004 1131 600.263Z" fill="url(#paint50_radial_196_1272)"/>
<path d="M853.2 416.461C747.8 496.221 655.7 565.189 607.9 600.263H603.3C649 564.514 741.6 493.607 848.9 412.329C1002.4 296.146 1127.9 202.812 1129.1 203.908C1130.3 205.004 1006.8 300.193 853.2 416.461Z" fill="url(#paint51_radial_196_1272)"/>
<path d="M1060.2 600.263C1012.7 559.961 934.1 491.583 845.8 413.678C703.1 287.883 589.1 184.6 591.1 182.998C593.1 181.396 710.2 282.15 852.8 407.945C943.5 487.958 1022.6 558.781 1067.7 600.263H1060.2Z" fill="url(#paint52_radial_196_1272)"/>
<path d="M830.4 600.262C806.4 573.114 780.5 543.773 753.7 513.083C631 373.123 533.4 258.542 535.5 257.193C537.7 255.844 638.9 368.233 761.5 508.193C789.9 540.569 817 571.596 841.7 600.262H830.4Z" fill="url(#paint53_radial_196_1272)"/>
</g>
<defs>
<linearGradient id="paint0_linear_196_1272" x1="4.64559" y1="569.939" x2="62.4851" y2="569.939" gradientUnits="userSpaceOnUse">
<stop stop-color="#5083C2"/>
<stop offset="1" stop-color="#5082C2" stop-opacity="0"/>
</linearGradient>
<linearGradient id="paint1_linear_196_1272" x1="4.709" y1="476.419" x2="301.524" y2="476.419" gradientUnits="userSpaceOnUse">
<stop stop-color="#5083C2"/>
<stop offset="1" stop-color="#5082C2" stop-opacity="0"/>
</linearGradient>
<linearGradient id="paint2_linear_196_1272" x1="4.5526" y1="400.717" x2="502.447" y2="400.717" gradientUnits="userSpaceOnUse">
<stop stop-color="#5083C2"/>
<stop offset="1" stop-color="#5082C2" stop-opacity="0"/>
</linearGradient>
<linearGradient id="paint3_linear_196_1272" x1="4.61789" y1="338.225" x2="673.904" y2="338.225" gradientUnits="userSpaceOnUse">
<stop stop-color="#5083C2"/>
<stop offset="1" stop-color="#5082C2" stop-opacity="0"/>
</linearGradient>
<linearGradient id="paint4_linear_196_1272" x1="73.2772" y1="311.701" x2="822.441" y2="311.701" gradientUnits="userSpaceOnUse">
<stop stop-color="#5083C2"/>
<stop offset="1" stop-color="#5082C2" stop-opacity="0"/>
</linearGradient>
<linearGradient id="paint5_linear_196_1272" x1="162.708" y1="300.044" x2="951.601" y2="300.044" gradientUnits="userSpaceOnUse">
<stop stop-color="#5083C2"/>
<stop offset="1" stop-color="#5082C2" stop-opacity="0"/>
</linearGradient>
<linearGradient id="paint6_linear_196_1272" x1="240.438" y1="289.687" x2="1065.31" y2="289.687" gradientUnits="userSpaceOnUse">
<stop stop-color="#5083C2"/>
<stop offset="1" stop-color="#5082C2" stop-opacity="0"/>
</linearGradient>
<linearGradient id="paint7_linear_196_1272" x1="309.532" y1="280.698" x2="1165.91" y2="280.698" gradientUnits="userSpaceOnUse">
<stop stop-color="#5083C2"/>
<stop offset="1" stop-color="#5082C2" stop-opacity="0"/>
</linearGradient>
<linearGradient id="paint8_linear_196_1272" x1="947.707" y1="511.453" x2="1031.2" y2="511.453" gradientUnits="userSpaceOnUse">
<stop stop-color="#5083C2"/>
<stop offset="1" stop-color="#5082C2" stop-opacity="0"/>
</linearGradient>
<linearGradient id="paint9_linear_196_1272" x1="790.382" y1="480.105" x2="944.579" y2="480.105" gradientUnits="userSpaceOnUse">
<stop stop-color="#5083C2"/>
<stop offset="1" stop-color="#5082C2" stop-opacity="0"/>
</linearGradient>
<linearGradient id="paint10_linear_196_1272" x1="604.357" y1="449.217" x2="859.216" y2="449.217" gradientUnits="userSpaceOnUse">
<stop stop-color="#5083C2"/>
<stop offset="1" stop-color="#5082C2" stop-opacity="0"/>
</linearGradient>
<linearGradient id="paint11_linear_196_1272" x1="381.238" y1="418.769" x2="775.06" y2="418.769" gradientUnits="userSpaceOnUse">
<stop stop-color="#5083C2"/>
<stop offset="1" stop-color="#5082C2" stop-opacity="0"/>
</linearGradient>
<linearGradient id="paint12_linear_196_1272" x1="108.645" y1="388.773" x2="692.114" y2="388.773" gradientUnits="userSpaceOnUse">
<stop stop-color="#5083C2"/>
<stop offset="1" stop-color="#5082C2" stop-opacity="0"/>
</linearGradient>
<linearGradient id="paint13_linear_196_1272" x1="4.7196" y1="293.242" x2="610.297" y2="293.242" gradientUnits="userSpaceOnUse">
<stop stop-color="#5083C2"/>
<stop offset="1" stop-color="#5082C2" stop-opacity="0"/>
</linearGradient>
<linearGradient id="paint14_linear_196_1272" x1="4.6182" y1="181.941" x2="529.644" y2="181.941" gradientUnits="userSpaceOnUse">
<stop stop-color="#5083C2"/>
<stop offset="1" stop-color="#5082C2" stop-opacity="0"/>
</linearGradient>
<linearGradient id="paint15_linear_196_1272" x1="4.6528" y1="85.6298" x2="450.109" y2="85.6298" gradientUnits="userSpaceOnUse">
<stop stop-color="#5083C2"/>
<stop offset="1" stop-color="#5082C2" stop-opacity="0"/>
</linearGradient>
<linearGradient id="paint16_linear_196_1272" x1="4.8997" y1="272.684" x2="1208.25" y2="272.684" gradientUnits="userSpaceOnUse">
<stop stop-color="#5083C2"/>
<stop offset="1" stop-color="#5082C2" stop-opacity="0"/>
</linearGradient>
<radialGradient id="paint17_radial_196_1272" cx="0" cy="0" r="1" gradientUnits="userSpaceOnUse" gradientTransform="translate(403.998 385.912) rotate(-133.052) scale(4.42823 347.442)">
<stop stop-color="#FAFAFA"/>
<stop offset="0.0469493" stop-color="#EFF2FA"/>
<stop offset="0.0982115" stop-color="#E8EDFA"/>
<stop offset="0.1217" stop-color="#E1E6FA" stop-opacity="0.9668"/>
<stop offset="0.2262" stop-color="#C6C9FC" stop-opacity="0.8188"/>
<stop offset="0.3388" stop-color="#B1B4FD" stop-opacity="0.6593"/>
<stop offset="0.4619" stop-color="#A2A4FE" stop-opacity="0.4851"/>
<stop offset="0.6033" stop-color="#999BFF" stop-opacity="0.2848"/>
<stop offset="0.8045" stop-color="#9698FF" stop-opacity="0"/>
</radialGradient>
<radialGradient id="paint18_radial_196_1272" cx="0" cy="0" r="1" gradientUnits="userSpaceOnUse" gradientTransform="translate(798.8 580.31) rotate(-152.332) scale(4.68454 328.433)">
<stop stop-color="#FAFAFA"/>
<stop offset="0.0469493" stop-color="#EFF2FA"/>
<stop offset="0.0982115" stop-color="#E8EDFA"/>
<stop offset="0.1217" stop-color="#E1E6FA" stop-opacity="0.9668"/>
<stop offset="0.2262" stop-color="#C6C9FC" stop-opacity="0.8188"/>
<stop offset="0.3388" stop-color="#B1B4FD" stop-opacity="0.6593"/>
<stop offset="0.4619" stop-color="#A2A4FE" stop-opacity="0.4851"/>
<stop offset="0.6033" stop-color="#999BFF" stop-opacity="0.2848"/>
<stop offset="0.8045" stop-color="#9698FF" stop-opacity="0"/>
</radialGradient>
<radialGradient id="paint19_radial_196_1272" cx="0" cy="0" r="1" gradientUnits="userSpaceOnUse" gradientTransform="translate(272.329 312.396) rotate(-126.2) scale(4.34473 354.114)">
<stop stop-color="#FAFAFA"/>
<stop offset="0.0469493" stop-color="#EFF2FA"/>
<stop offset="0.0982115" stop-color="#E8EDFA"/>
<stop offset="0.1217" stop-color="#E1E6FA" stop-opacity="0.9668"/>
<stop offset="0.2262" stop-color="#C6C9FC" stop-opacity="0.8188"/>
<stop offset="0.3388" stop-color="#B1B4FD" stop-opacity="0.6593"/>
<stop offset="0.4619" stop-color="#A2A4FE" stop-opacity="0.4851"/>
<stop offset="0.6033" stop-color="#999BFF" stop-opacity="0.2848"/>
<stop offset="0.8045" stop-color="#9698FF" stop-opacity="0"/>
</radialGradient>
<radialGradient id="paint20_radial_196_1272" cx="0" cy="0" r="1" gradientUnits="userSpaceOnUse" gradientTransform="translate(129.1 242.193) rotate(-119.968) scale(4.27722 359.707)">
<stop stop-color="#FAFAFA"/>
<stop offset="0.0469493" stop-color="#EFF2FA"/>
<stop offset="0.0982115" stop-color="#E8EDFA"/>
<stop offset="0.1217" stop-color="#E1E6FA" stop-opacity="0.9668"/>
<stop offset="0.2262" stop-color="#C6C9FC" stop-opacity="0.8188"/>
<stop offset="0.3388" stop-color="#B1B4FD" stop-opacity="0.6593"/>
<stop offset="0.4619" stop-color="#A2A4FE" stop-opacity="0.4851"/>
<stop offset="0.6033" stop-color="#999BFF" stop-opacity="0.2848"/>
<stop offset="0.8045" stop-color="#9698FF" stop-opacity="0"/>
</radialGradient>
<radialGradient id="paint21_radial_196_1272" cx="0" cy="0" r="1" gradientUnits="userSpaceOnUse" gradientTransform="translate(323.985 326.683) rotate(-41.6621) scale(4.49849 342.015)">
<stop stop-color="#FAFAFA"/>
<stop offset="0.0469493" stop-color="#EFF2FA"/>
<stop offset="0.0982115" stop-color="#E8EDFA"/>
<stop offset="0.1217" stop-color="#E1E6FA" stop-opacity="0.9668"/>
<stop offset="0.2262" stop-color="#C6C9FC" stop-opacity="0.8188"/>
<stop offset="0.3388" stop-color="#B1B4FD" stop-opacity="0.6593"/>
<stop offset="0.4619" stop-color="#A2A4FE" stop-opacity="0.4851"/>
<stop offset="0.6033" stop-color="#999BFF" stop-opacity="0.2848"/>
<stop offset="0.8045" stop-color="#9698FF" stop-opacity="0"/>
</radialGradient>
<radialGradient id="paint22_radial_196_1272" cx="0" cy="0" r="1" gradientUnits="userSpaceOnUse" gradientTransform="translate(310.008 443.964) rotate(-40.9387) scale(4.50765 341.32)">
<stop stop-color="#FAFAFA"/>
<stop offset="0.0469493" stop-color="#EFF2FA"/>
<stop offset="0.0982115" stop-color="#E8EDFA"/>
<stop offset="0.1217" stop-color="#E1E6FA" stop-opacity="0.9668"/>
<stop offset="0.2262" stop-color="#C6C9FC" stop-opacity="0.8188"/>
<stop offset="0.3388" stop-color="#B1B4FD" stop-opacity="0.6593"/>
<stop offset="0.4619" stop-color="#A2A4FE" stop-opacity="0.4851"/>
<stop offset="0.6033" stop-color="#999BFF" stop-opacity="0.2848"/>
<stop offset="0.8045" stop-color="#9698FF" stop-opacity="0"/>
</radialGradient>
<radialGradient id="paint23_radial_196_1272" cx="0" cy="0" r="1" gradientUnits="userSpaceOnUse" gradientTransform="translate(216.632 525.865) rotate(-40.7441) scale(4.5113 341.048)">
<stop stop-color="#FAFAFA"/>
<stop offset="0.0469493" stop-color="#EFF2FA"/>
<stop offset="0.0982115" stop-color="#E8EDFA"/>
<stop offset="0.1217" stop-color="#E1E6FA" stop-opacity="0.9668"/>
<stop offset="0.2262" stop-color="#C6C9FC" stop-opacity="0.8188"/>
<stop offset="0.3388" stop-color="#B1B4FD" stop-opacity="0.6593"/>
<stop offset="0.4619" stop-color="#A2A4FE" stop-opacity="0.4851"/>
<stop offset="0.6033" stop-color="#999BFF" stop-opacity="0.2848"/>
<stop offset="0.8045" stop-color="#9698FF" stop-opacity="0"/>
</radialGradient>
<radialGradient id="paint24_radial_196_1272" cx="0" cy="0" r="1" gradientUnits="userSpaceOnUse" gradientTransform="translate(584.98 414.432) rotate(-40.9219) scale(3.01614 341.141)">
<stop stop-color="#FAFAFA"/>
<stop offset="0.0469493" stop-color="#EFF2FA"/>
<stop offset="0.0982115" stop-color="#E8EDFA"/>
<stop offset="0.1217" stop-color="#E1E6FA" stop-opacity="0.9668"/>
<stop offset="0.2262" stop-color="#C6C9FC" stop-opacity="0.8188"/>
<stop offset="0.3388" stop-color="#B1B4FD" stop-opacity="0.6593"/>
<stop offset="0.4619" stop-color="#A2A4FE" stop-opacity="0.4851"/>
<stop offset="0.6033" stop-color="#999BFF" stop-opacity="0.2848"/>
<stop offset="0.8045" stop-color="#9698FF" stop-opacity="0"/>
</radialGradient>
<radialGradient id="paint25_radial_196_1272" cx="0" cy="0" r="1" gradientUnits="userSpaceOnUse" gradientTransform="translate(586.715 410.831) rotate(-139.644) scale(4.51643 340.661)">
<stop stop-color="#FAFAFA"/>
<stop offset="0.0469493" stop-color="#EFF2FA"/>
<stop offset="0.0982115" stop-color="#E8EDFA"/>
<stop offset="0.1217" stop-color="#E1E6FA" stop-opacity="0.9668"/>
<stop offset="0.2262" stop-color="#C6C9FC" stop-opacity="0.8188"/>
<stop offset="0.3388" stop-color="#B1B4FD" stop-opacity="0.6593"/>
<stop offset="0.4619" stop-color="#A2A4FE" stop-opacity="0.4851"/>
<stop offset="0.6033" stop-color="#999BFF" stop-opacity="0.2848"/>
<stop offset="0.8045" stop-color="#9698FF" stop-opacity="0"/>
</radialGradient>
<radialGradient id="paint26_radial_196_1272" cx="0" cy="0" r="1" gradientUnits="userSpaceOnUse" gradientTransform="translate(678.411 510.695) rotate(-146.623) scale(4.61106 333.668)">
<stop stop-color="#FAFAFA"/>
<stop offset="0.0469493" stop-color="#EFF2FA"/>
<stop offset="0.0982115" stop-color="#E8EDFA"/>
<stop offset="0.1217" stop-color="#E1E6FA" stop-opacity="0.9668"/>
<stop offset="0.2262" stop-color="#C6C9FC" stop-opacity="0.8188"/>
<stop offset="0.3388" stop-color="#B1B4FD" stop-opacity="0.6593"/>
<stop offset="0.4619" stop-color="#A2A4FE" stop-opacity="0.4851"/>
<stop offset="0.6033" stop-color="#999BFF" stop-opacity="0.2848"/>
<stop offset="0.8045" stop-color="#9698FF" stop-opacity="0"/>
</radialGradient>
<linearGradient id="paint27_linear_196_1272" x1="1431.36" y1="569.939" x2="1373.52" y2="569.939" gradientUnits="userSpaceOnUse">
<stop stop-color="#5083C2"/>
<stop offset="1" stop-color="#5082C2" stop-opacity="0"/>
</linearGradient>
<linearGradient id="paint28_linear_196_1272" x1="1431.29" y1="476.419" x2="1134.48" y2="476.419" gradientUnits="userSpaceOnUse">
<stop stop-color="#5083C2"/>
<stop offset="1" stop-color="#5082C2" stop-opacity="0"/>
</linearGradient>
<linearGradient id="paint29_linear_196_1272" x1="1431.45" y1="400.717" x2="933.553" y2="400.717" gradientUnits="userSpaceOnUse">
<stop stop-color="#5083C2"/>
<stop offset="1" stop-color="#5082C2" stop-opacity="0"/>
</linearGradient>
<linearGradient id="paint30_linear_196_1272" x1="1431.38" y1="338.225" x2="762.097" y2="338.225" gradientUnits="userSpaceOnUse">
<stop stop-color="#5083C2"/>
<stop offset="1" stop-color="#5082C2" stop-opacity="0"/>
</linearGradient>
<linearGradient id="paint31_linear_196_1272" x1="1362.72" y1="311.701" x2="613.559" y2="311.701" gradientUnits="userSpaceOnUse">
<stop stop-color="#5083C2"/>
<stop offset="1" stop-color="#5082C2" stop-opacity="0"/>
</linearGradient>
<linearGradient id="paint32_linear_196_1272" x1="1273.29" y1="300.044" x2="484.399" y2="300.044" gradientUnits="userSpaceOnUse">
<stop stop-color="#5083C2"/>
<stop offset="1" stop-color="#5082C2" stop-opacity="0"/>
</linearGradient>
<linearGradient id="paint33_linear_196_1272" x1="1195.56" y1="289.687" x2="370.688" y2="289.687" gradientUnits="userSpaceOnUse">
<stop stop-color="#5083C2"/>
<stop offset="1" stop-color="#5082C2" stop-opacity="0"/>
</linearGradient>
<linearGradient id="paint34_linear_196_1272" x1="1126.47" y1="280.698" x2="270.094" y2="280.698" gradientUnits="userSpaceOnUse">
<stop stop-color="#5083C2"/>
<stop offset="1" stop-color="#5082C2" stop-opacity="0"/>
</linearGradient>
<linearGradient id="paint35_linear_196_1272" x1="488.293" y1="511.453" x2="404.804" y2="511.453" gradientUnits="userSpaceOnUse">
<stop stop-color="#5083C2"/>
<stop offset="1" stop-color="#5082C2" stop-opacity="0"/>
</linearGradient>
<linearGradient id="paint36_linear_196_1272" x1="645.618" y1="480.105" x2="491.421" y2="480.105" gradientUnits="userSpaceOnUse">
<stop stop-color="#5083C2"/>
<stop offset="1" stop-color="#5082C2" stop-opacity="0"/>
</linearGradient>
<linearGradient id="paint37_linear_196_1272" x1="831.643" y1="449.217" x2="576.784" y2="449.217" gradientUnits="userSpaceOnUse">
<stop stop-color="#5083C2"/>
<stop offset="1" stop-color="#5082C2" stop-opacity="0"/>
</linearGradient>
<linearGradient id="paint38_linear_196_1272" x1="1054.76" y1="418.769" x2="660.94" y2="418.769" gradientUnits="userSpaceOnUse">
<stop stop-color="#5083C2"/>
<stop offset="1" stop-color="#5082C2" stop-opacity="0"/>
</linearGradient>
<linearGradient id="paint39_linear_196_1272" x1="1327.36" y1="388.773" x2="743.886" y2="388.773" gradientUnits="userSpaceOnUse">
<stop stop-color="#5083C2"/>
<stop offset="1" stop-color="#5082C2" stop-opacity="0"/>
</linearGradient>
<linearGradient id="paint40_linear_196_1272" x1="1431.28" y1="293.242" x2="825.703" y2="293.242" gradientUnits="userSpaceOnUse">
<stop stop-color="#5083C2"/>
<stop offset="1" stop-color="#5082C2" stop-opacity="0"/>
</linearGradient>
<linearGradient id="paint41_linear_196_1272" x1="1431.38" y1="181.941" x2="906.356" y2="181.941" gradientUnits="userSpaceOnUse">
<stop stop-color="#5083C2"/>
<stop offset="1" stop-color="#5082C2" stop-opacity="0"/>
</linearGradient>
<linearGradient id="paint42_linear_196_1272" x1="1431.35" y1="85.6298" x2="985.891" y2="85.6298" gradientUnits="userSpaceOnUse">
<stop stop-color="#5083C2"/>
<stop offset="1" stop-color="#5082C2" stop-opacity="0"/>
</linearGradient>
<linearGradient id="paint43_linear_196_1272" x1="1431.1" y1="272.684" x2="227.745" y2="272.684" gradientUnits="userSpaceOnUse">
<stop stop-color="#5083C2"/>
<stop offset="1" stop-color="#5082C2" stop-opacity="0"/>
</linearGradient>
<radialGradient id="paint44_radial_196_1272" cx="0" cy="0" r="1" gradientUnits="userSpaceOnUse" gradientTransform="translate(1032 385.912) rotate(-46.9479) scale(4.42823 347.442)">
<stop stop-color="#FAFAFA"/>
<stop offset="0.0469493" stop-color="#EFF2FA"/>
<stop offset="0.0982115" stop-color="#E8EDFA"/>
<stop offset="0.1217" stop-color="#E1E6FA" stop-opacity="0.9668"/>
<stop offset="0.2262" stop-color="#C6C9FC" stop-opacity="0.8188"/>
<stop offset="0.3388" stop-color="#B1B4FD" stop-opacity="0.6593"/>
<stop offset="0.4619" stop-color="#A2A4FE" stop-opacity="0.4851"/>
<stop offset="0.6033" stop-color="#999BFF" stop-opacity="0.2848"/>
<stop offset="0.8045" stop-color="#9698FF" stop-opacity="0"/>
</radialGradient>
<radialGradient id="paint45_radial_196_1272" cx="0" cy="0" r="1" gradientUnits="userSpaceOnUse" gradientTransform="translate(637.2 580.31) rotate(-27.6677) scale(4.68454 328.433)">
<stop stop-color="#FAFAFA"/>
<stop offset="0.0469493" stop-color="#EFF2FA"/>
<stop offset="0.0982115" stop-color="#E8EDFA"/>
<stop offset="0.1217" stop-color="#E1E6FA" stop-opacity="0.9668"/>
<stop offset="0.2262" stop-color="#C6C9FC" stop-opacity="0.8188"/>
<stop offset="0.3388" stop-color="#B1B4FD" stop-opacity="0.6593"/>
<stop offset="0.4619" stop-color="#A2A4FE" stop-opacity="0.4851"/>
<stop offset="0.6033" stop-color="#999BFF" stop-opacity="0.2848"/>
<stop offset="0.8045" stop-color="#9698FF" stop-opacity="0"/>
</radialGradient>
<radialGradient id="paint46_radial_196_1272" cx="0" cy="0" r="1" gradientUnits="userSpaceOnUse" gradientTransform="translate(1163.67 312.396) rotate(-53.8002) scale(4.34473 354.114)">
<stop stop-color="#FAFAFA"/>
<stop offset="0.0469493" stop-color="#EFF2FA"/>
<stop offset="0.0982115" stop-color="#E8EDFA"/>
<stop offset="0.1217" stop-color="#E1E6FA" stop-opacity="0.9668"/>
<stop offset="0.2262" stop-color="#C6C9FC" stop-opacity="0.8188"/>
<stop offset="0.3388" stop-color="#B1B4FD" stop-opacity="0.6593"/>
<stop offset="0.4619" stop-color="#A2A4FE" stop-opacity="0.4851"/>
<stop offset="0.6033" stop-color="#999BFF" stop-opacity="0.2848"/>
<stop offset="0.8045" stop-color="#9698FF" stop-opacity="0"/>
</radialGradient>
<radialGradient id="paint47_radial_196_1272" cx="0" cy="0" r="1" gradientUnits="userSpaceOnUse" gradientTransform="translate(1306.9 242.193) rotate(-60.032) scale(4.27722 359.707)">
<stop stop-color="#FAFAFA"/>
<stop offset="0.0469493" stop-color="#EFF2FA"/>
<stop offset="0.0982115" stop-color="#E8EDFA"/>
<stop offset="0.1217" stop-color="#E1E6FA" stop-opacity="0.9668"/>
<stop offset="0.2262" stop-color="#C6C9FC" stop-opacity="0.8188"/>
<stop offset="0.3388" stop-color="#B1B4FD" stop-opacity="0.6593"/>
<stop offset="0.4619" stop-color="#A2A4FE" stop-opacity="0.4851"/>
<stop offset="0.6033" stop-color="#999BFF" stop-opacity="0.2848"/>
<stop offset="0.8045" stop-color="#9698FF" stop-opacity="0"/>
</radialGradient>
<radialGradient id="paint48_radial_196_1272" cx="0" cy="0" r="1" gradientUnits="userSpaceOnUse" gradientTransform="translate(1112.01 326.683) rotate(-138.338) scale(4.49849 342.015)">
<stop stop-color="#FAFAFA"/>
<stop offset="0.0469493" stop-color="#EFF2FA"/>
<stop offset="0.0982115" stop-color="#E8EDFA"/>
<stop offset="0.1217" stop-color="#E1E6FA" stop-opacity="0.9668"/>
<stop offset="0.2262" stop-color="#C6C9FC" stop-opacity="0.8188"/>
<stop offset="0.3388" stop-color="#B1B4FD" stop-opacity="0.6593"/>
<stop offset="0.4619" stop-color="#A2A4FE" stop-opacity="0.4851"/>
<stop offset="0.6033" stop-color="#999BFF" stop-opacity="0.2848"/>
<stop offset="0.8045" stop-color="#9698FF" stop-opacity="0"/>
</radialGradient>
<radialGradient id="paint49_radial_196_1272" cx="0" cy="0" r="1" gradientUnits="userSpaceOnUse" gradientTransform="translate(1125.99 443.964) rotate(-139.061) scale(4.50765 341.32)">
<stop stop-color="#FAFAFA"/>
<stop offset="0.0469493" stop-color="#EFF2FA"/>
<stop offset="0.0982115" stop-color="#E8EDFA"/>
<stop offset="0.1217" stop-color="#E1E6FA" stop-opacity="0.9668"/>
<stop offset="0.2262" stop-color="#C6C9FC" stop-opacity="0.8188"/>
<stop offset="0.3388" stop-color="#B1B4FD" stop-opacity="0.6593"/>
<stop offset="0.4619" stop-color="#A2A4FE" stop-opacity="0.4851"/>
<stop offset="0.6033" stop-color="#999BFF" stop-opacity="0.2848"/>
<stop offset="0.8045" stop-color="#9698FF" stop-opacity="0"/>
</radialGradient>
<radialGradient id="paint50_radial_196_1272" cx="0" cy="0" r="1" gradientUnits="userSpaceOnUse" gradientTransform="translate(1219.37 525.865) rotate(-139.256) scale(4.5113 341.048)">
<stop stop-color="#FAFAFA"/>
<stop offset="0.0469493" stop-color="#EFF2FA"/>
<stop offset="0.0982115" stop-color="#E8EDFA"/>
<stop offset="0.1217" stop-color="#E1E6FA" stop-opacity="0.9668"/>
<stop offset="0.2262" stop-color="#C6C9FC" stop-opacity="0.8188"/>
<stop offset="0.3388" stop-color="#B1B4FD" stop-opacity="0.6593"/>
<stop offset="0.4619" stop-color="#A2A4FE" stop-opacity="0.4851"/>
<stop offset="0.6033" stop-color="#999BFF" stop-opacity="0.2848"/>
<stop offset="0.8045" stop-color="#9698FF" stop-opacity="0"/>
</radialGradient>
<radialGradient id="paint51_radial_196_1272" cx="0" cy="0" r="1" gradientUnits="userSpaceOnUse" gradientTransform="translate(851.02 414.432) rotate(-139.078) scale(3.01614 341.141)">
<stop stop-color="#FAFAFA"/>
<stop offset="0.0469493" stop-color="#EFF2FA"/>
<stop offset="0.0982115" stop-color="#E8EDFA"/>
<stop offset="0.1217" stop-color="#E1E6FA" stop-opacity="0.9668"/>
<stop offset="0.2262" stop-color="#C6C9FC" stop-opacity="0.8188"/>
<stop offset="0.3388" stop-color="#B1B4FD" stop-opacity="0.6593"/>
<stop offset="0.4619" stop-color="#A2A4FE" stop-opacity="0.4851"/>
<stop offset="0.6033" stop-color="#999BFF" stop-opacity="0.2848"/>
<stop offset="0.8045" stop-color="#9698FF" stop-opacity="0"/>
</radialGradient>
<radialGradient id="paint52_radial_196_1272" cx="0" cy="0" r="1" gradientUnits="userSpaceOnUse" gradientTransform="translate(849.285 410.831) rotate(-40.3564) scale(4.51643 340.661)">
<stop stop-color="#FAFAFA"/>
<stop offset="0.0469493" stop-color="#EFF2FA"/>
<stop offset="0.0982115" stop-color="#E8EDFA"/>
<stop offset="0.1217" stop-color="#E1E6FA" stop-opacity="0.9668"/>
<stop offset="0.2262" stop-color="#C6C9FC" stop-opacity="0.8188"/>
<stop offset="0.3388" stop-color="#B1B4FD" stop-opacity="0.6593"/>
<stop offset="0.4619" stop-color="#A2A4FE" stop-opacity="0.4851"/>
<stop offset="0.6033" stop-color="#999BFF" stop-opacity="0.2848"/>
<stop offset="0.8045" stop-color="#9698FF" stop-opacity="0"/>
</radialGradient>
<radialGradient id="paint53_radial_196_1272" cx="0" cy="0" r="1" gradientUnits="userSpaceOnUse" gradientTransform="translate(757.589 510.695) rotate(-33.3773) scale(4.61106 333.668)">
<stop stop-color="#FAFAFA"/>
<stop offset="0.0469493" stop-color="#EFF2FA"/>
<stop offset="0.0982115" stop-color="#E8EDFA"/>
<stop offset="0.1217" stop-color="#E1E6FA" stop-opacity="0.9668"/>
<stop offset="0.2262" stop-color="#C6C9FC" stop-opacity="0.8188"/>
<stop offset="0.3388" stop-color="#B1B4FD" stop-opacity="0.6593"/>
<stop offset="0.4619" stop-color="#A2A4FE" stop-opacity="0.4851"/>
<stop offset="0.6033" stop-color="#999BFF" stop-opacity="0.2848"/>
<stop offset="0.8045" stop-color="#9698FF" stop-opacity="0"/>
</radialGradient>
<clipPath id="clip0_196_1272">
<rect width="979" height="556.976" fill="white" transform="translate(-4 11)"/>
</clipPath>
<clipPath id="clip1_196_1272">
<rect width="979" height="556.976" fill="white" transform="matrix(-1 0 0 1 1440 11)"/>
</clipPath>
</defs>
</svg>
