<svg width="39" height="40" viewBox="0 0 39 40" fill="none" xmlns="http://www.w3.org/2000/svg">
<rect y="0.0131836" width="39" height="39" rx="19.5" fill="#86BE3F"/>
<path d="M17.9029 21.2619L16.8587 20.7632L15.9771 22.9403C15.9743 22.9471 15.9717 22.9541 15.9694 22.961C15.8574 23.297 15.8823 23.6022 16.0396 23.8203C16.176 24.0096 16.3951 24.1138 16.6568 24.1138H16.6569C16.7808 24.1138 16.9139 24.0904 17.0525 24.0442C17.0596 24.0419 17.0665 24.0393 17.0733 24.0366L19.2504 23.155L18.7518 22.1106C18.6184 21.8315 18.1821 21.3952 17.9029 21.2619Z" fill="white"/>
<path d="M25.9704 14.5405L19.1152 21.3957C19.229 21.5359 19.3238 21.6778 19.3861 21.808L21.1261 25.4516C21.3599 25.9411 21.6681 26.0141 21.8309 26.0141H21.8309C21.9764 26.0141 22.3358 25.9509 22.5313 25.3645L25.9307 15.1661C26.0069 14.9374 26.0195 14.723 25.9704 14.5405Z" fill="white"/>
<path d="M18.6184 20.8983L25.4739 14.0428C25.402 14.0233 25.3249 14.0132 25.2437 14.0132C25.1196 14.0132 24.9865 14.0366 24.8479 14.0829L14.6496 17.4822C14.11 17.6621 14.0117 17.9762 14.0011 18.1473C13.9905 18.3185 14.0493 18.6423 14.5625 18.8873L18.2062 20.6274C18.3363 20.6897 18.4782 20.7845 18.6184 20.8983Z" fill="white"/>
</svg>
