<svg width="61" height="61" viewBox="0 0 61 61" fill="none" xmlns="http://www.w3.org/2000/svg">
<circle cx="30.5" cy="30.5" r="29" stroke="#86BE3F" stroke-width="3"/>
<path d="M47.6907 36.5455C38.0002 27.5552 22.9295 27.5552 13.2763 36.5455C12.9079 36.9138 12.9079 37.5034 13.2763 37.8721L18.14 42.7358C18.4716 43.0674 19.0244 43.1042 19.3928 42.7726C25.6934 37.0983 35.3108 37.0983 41.6114 42.7726C41.9798 43.1042 42.5326 43.0674 42.8642 42.7358L47.7279 37.8721C48.0966 37.5035 48.0966 36.9139 47.6912 36.5455H47.6907Z" fill="#86BE3F"/>
<path d="M18.7296 28.439L25.325 27.0021C25.9882 26.8546 26.2094 26.0441 25.7305 25.6019L24.2197 24.0911C26.0621 22.6174 28.2728 21.8803 30.4835 21.8803C32.6943 21.8803 34.9421 22.6174 36.7474 24.0911L35.2366 25.6019C34.7576 26.0809 35.0157 26.8914 35.6421 27.0021L42.2375 28.4022C42.8272 28.5128 43.3429 27.9968 43.2323 27.4075L41.8321 20.812C41.6847 20.1488 40.8742 19.9276 40.4319 20.4066L38.8476 21.9909C34.0207 17.9378 26.9466 17.901 22.1196 21.9909L20.5353 20.4433C20.0563 19.9643 19.2458 20.2223 19.1351 20.8487L17.735 27.4442C17.5879 28.0335 18.1404 28.5496 18.73 28.4389L18.7296 28.439Z" fill="#86BE3F"/>
</svg>
